<svg width="34" height="18" viewBox="0 0 34 18" fill="none" xmlns="http://www.w3.org/2000/svg">
<g clip-path="url(#clip0_997_152)">
<path fill-rule="evenodd" clip-rule="evenodd" d="M0 1.5C0 0.671632 0.656119 0 1.46552 0H32.5345C33.3437 0 34 0.671632 34 1.5V16.5C34 17.3284 33.3437 18 32.5345 18H1.46552C0.656119 18 0 17.3284 0 16.5V1.5ZM24.5295 6.22631L21.8378 1.8H20.5463V8.42899H21.7808V4.1064L24.4307 8.42899H25.7627V1.8H24.5295V6.22631ZM12.8316 7.31367H9.53031V1.8561H8.20255V8.43033H12.8316V7.31367ZM3.70991 10.6934H1.75862V9.57245H6.98336V10.6934H5.03764V16.2H3.70991V10.6934ZM11.5164 12.1805H8.91515V9.57245H7.58737V16.2H8.91515V13.3015H11.5164V16.2H12.8441V9.57245H11.5164V12.1805ZM21.8378 9.56954L24.5295 13.996V9.56954H25.7627V16.1985H24.4307L21.7808 11.8761V16.1985H20.5463V9.56954H21.8378ZM26.9984 11.7232H27.0068C27.0891 13.1093 28.2246 14.2078 29.6194 14.2078C31.0598 14.2078 32.2261 13.0392 32.2401 11.5898H32.2414V8.11612H29.2338V9.35918H31.0083V11.5646C31.0083 12.3376 30.3863 12.9647 29.6194 12.9647C28.8525 12.9647 28.2316 12.3376 28.2316 11.5646V3.04306H31.0083V6.89692H32.2414V1.8H26.9984V11.7232ZM28.2316 16.2C27.5511 16.2 26.9984 15.6431 26.9984 14.9569H32.2414C32.2414 15.6431 31.6888 16.2 31.0083 16.2H28.2316ZM16.6897 1.8C15.2408 1.8 14.0675 2.98271 14.0675 4.44316V16.2H15.3006V4.44316C15.3006 3.67017 15.9228 3.04306 16.6897 3.04306C17.4565 3.04306 18.0772 3.67017 18.0772 4.44316V16.1985H19.3104V4.44316C19.3104 2.98271 18.1371 1.8 16.6897 1.8ZM2.63793 4.2C3.28543 4.2 3.81035 3.6627 3.81035 3C3.81035 2.33731 3.28543 1.8 2.63793 1.8C1.99044 1.8 1.46552 2.33731 1.46552 3C1.46552 3.6627 1.99044 4.2 2.63793 4.2Z" fill="white"/>
</g>
<defs>
<clipPath id="clip0_997_152">
<rect width="34" height="18" fill="white"/>
</clipPath>
</defs>
</svg>
